<?xml version="1.0" encoding="utf-8"?>
<!-- Generator: Adobe Illustrator 21.1.0, SVG Export Plug-In . SVG Version: 6.00 Build 0)  -->
<svg version="1.1" id="Objects" xmlns="http://www.w3.org/2000/svg" xmlns:xlink="http://www.w3.org/1999/xlink" x="0px" y="0px"
	 width="356px" height="321px" viewBox="0 0 356 321" style="enable-background:new 0 0 356 321;" xml:space="preserve">
<style type="text/css">
	.st0{fill:#F8E9E4;}
	.st1{fill:#F8D5C9;}
	.st2{fill:#DADADA;}
	.st3{fill:#E2413E;}
	.st4{fill:#28384F;}
	.st5{fill:#FFFFFF;}
	.st6{fill:#F0C419;}
	.st7{fill:#33AEFF;}
	.st8{fill:#A4C639;}
	.st9{fill:#D36BC5;}
</style>
<g>
	<path class="st0" d="M309.4,94.3H190.7c-4.6,0-8.2-3.7-8.2-8.2c0-4.6,3.7-8.2,8.2-8.2h17.4c11.8,0,21.4-9.6,21.4-21.4l0,0
		c0-11.8-9.6-21.4-21.4-21.4H62.2c-11.8,0-21.4,9.6-21.4,21.4l0,0c0,11.8,9.6,21.4,21.4,21.4h61.6c4.6,0,8.2,3.7,8.2,8.2
		c0,4.6-3.7,8.2-8.2,8.2H107c-14.2,0-25.8,11.5-25.8,25.8l0,0c0,14.2,11.5,25.7,25.8,25.7h108.5c4.6,0,8.2,3.7,8.2,8.2
		c0,4.4-3.5,8.1-7.9,8.2H44.1c-12.9,0-23.3,10.4-23.3,23.3l0,0c0,12.9,10.4,23.3,23.3,23.3H95c4.6,0,8.2,3.7,8.2,8.2
		c0,4.1-3.1,7.6-7,8.1H88c-12.9,0-23.3,10.4-23.3,23.3s10.4,23.3,23.3,23.3h163.4c12.9,0,23.3-10.4,23.3-23.3s-10.4-23.3-23.3-23.3
		h-14.2c-4-0.6-7-4-7-8.1c0-4.6,3.7-8.2,8.2-8.2h50.7c12.9,0,23.3-10.4,23.3-23.3l0,0c0-12.9-10.4-23.3-23.3-23.3h-7
		c-4.4-0.2-7.9-3.8-7.9-8.2c0-4.6,3.7-8.2,8.2-8.2h27c14.2,0,25.8-11.5,25.8-25.7l0,0C335.2,105.8,323.6,94.3,309.4,94.3z
		 M179.8,217.2c0,4.1-3.1,7.6-7,8.1h-12.2c-4-0.6-7-4-7-8.1c0-4.6,3.7-8.2,8.2-8.2h9.7C176.1,208.9,179.8,212.6,179.8,217.2z"/>
	<path class="st1" d="M256,290.5H100c-4.1,0-7.5-3.4-7.5-7.5l0,0c0-4.1,3.4-7.5,7.5-7.5h156c4.1,0,7.5,3.4,7.5,7.5l0,0
		C263.5,287.1,260.1,290.5,256,290.5z"/>
	<path class="st1" d="M73.6,290.5H55.4c-4.1,0-7.5-3.4-7.5-7.5l0,0c0-4.1,3.4-7.5,7.5-7.5h18.2c4.1,0,7.5,3.4,7.5,7.5l0,0
		C81.1,287.1,77.7,290.5,73.6,290.5z"/>
	<path class="st1" d="M278.9,290.5h0.5c-4.1,0-7.5-3.4-7.5-7.5l0,0c0-4.1,3.4-7.5,7.5-7.5h-0.5c4.1,0,7.5,3.4,7.5,7.5l0,0
		C286.4,287.1,283,290.5,278.9,290.5z"/>
	<g>
		<g>
			<g>
				<path class="st2" d="M248.7,226.8H118.8l-15.1-102.7h163.9L248.7,226.8z M125.2,219.5h117.4l16.3-88H112.2L125.2,219.5z"/>
			</g>
			<g>
				<rect x="113.1" y="154.4" class="st2" width="145" height="4"/>
			</g>
			<g>
				<rect x="119.1" y="192.8" class="st2" width="133" height="4"/>
			</g>
			<g>
				<rect x="183.6" y="127.8" class="st2" width="4" height="95.4"/>
			</g>
			<g>
				<g>
					
						<rect x="141.7" y="127.5" transform="matrix(0.9947 -0.1033 0.1033 0.9947 -17.3548 15.7828)" class="st2" width="4" height="95.9"/>
				</g>
				<g>
					
						<rect x="178.6" y="173.5" transform="matrix(0.1221 -0.9925 0.9925 0.1221 24.7619 379.0081)" class="st2" width="96.1" height="4"/>
				</g>
			</g>
			<g>
				<polygon class="st2" points="105.4,133.9 87.9,116.5 64.7,116.5 64.7,104 93,104 114.2,125.1 				"/>
			</g>
			<g>
				<path class="st2" d="M240.2,261.4H121.5c-13,0-23.6-10.6-23.6-23.6s10.6-23.6,23.6-23.6h0.5v12.5h-0.5c-6.1,0-11.1,5-11.1,11.1
					s5,11.1,11.1,11.1h118.7V261.4z"/>
			</g>
			<g>
				<path class="st3" d="M79.5,116.5H57c-3.4,0-6.2-2.8-6.2-6.2c0-3.4,2.8-6.2,6.2-6.2h22.5c3.4,0,6.2,2.8,6.2,6.2
					S82.9,116.5,79.5,116.5z"/>
			</g>
			<g>
				<circle class="st4" cx="237.8" cy="260.9" r="22.1"/>
			</g>
			<g>
				<circle class="st5" cx="237.8" cy="260.9" r="11.1"/>
			</g>
			<g>
				<circle class="st4" cx="121.7" cy="260.9" r="22.1"/>
			</g>
			<g>
				<circle class="st5" cx="121.7" cy="260.9" r="11.1"/>
			</g>
		</g>
		<g>
			<circle class="st6" cx="121.9" cy="66" r="2.8"/>
		</g>
		<g>
			<circle class="st7" cx="193.8" cy="113.7" r="3.5"/>
		</g>
		<g>
			<circle class="st8" cx="285.8" cy="97.1" r="2.8"/>
		</g>
		<g>
			<circle class="st6" cx="129.6" cy="182.3" r="2.8"/>
		</g>
		<g>
			<circle class="st9" cx="192.7" cy="29.6" r="2.8"/>
		</g>
		<g>
			<circle class="st3" cx="308.8" cy="145.8" r="2.8"/>
		</g>
		<g>
			<circle class="st8" cx="200.7" cy="243" r="2.8"/>
		</g>
		<g>
			<circle class="st3" cx="47.2" cy="80.6" r="2.8"/>
		</g>
		<g>
			<circle class="st8" cx="79.3" cy="135" r="3.8"/>
		</g>
		<g>
			<circle class="st3" cx="209.8" cy="46.2" r="1.8"/>
		</g>
		<g>
			<circle class="st9" cx="119.1" cy="117.2" r="1.8"/>
		</g>
		<g>
			<circle class="st7" cx="276.4" cy="158.6" r="2.2"/>
		</g>
		<g>
			<circle class="st9" cx="163.1" cy="236" r="2.2"/>
		</g>
		<g>
			<path class="st4" d="M132.2,35.6h-1.3v-1.3c0-0.9-0.7-1.6-1.6-1.6c-0.9,0-1.6,0.7-1.6,1.6v1.3h-1.3c-0.9,0-1.6,0.7-1.6,1.6
				c0,0.9,0.7,1.6,1.6,1.6h1.3v1.3c0,0.9,0.7,1.6,1.6,1.6s1.6-0.7,1.6-1.6v-1.3h1.3c0.9,0,1.6-0.7,1.6-1.6S133.1,35.6,132.2,35.6z"
				/>
		</g>
		<g>
			<path class="st4" d="M272.6,193.2h-1.3v-1.3c0-0.9-0.7-1.6-1.6-1.6s-1.6,0.7-1.6,1.6v1.3h-1.3c-0.9,0-1.6,0.7-1.6,1.6
				c0,0.9,0.7,1.6,1.6,1.6h1.3v1.3c0,0.9,0.7,1.6,1.6,1.6s1.6-0.7,1.6-1.6v-1.3h1.3c0.9,0,1.6-0.7,1.6-1.6S273.5,193.2,272.6,193.2z
				"/>
		</g>
		<g>
			<path class="st4" d="M277.1,64.4h-1.3v-1.3c0-0.9-0.7-1.6-1.6-1.6s-1.6,0.7-1.6,1.6v1.3h-1.3c-0.9,0-1.6,0.7-1.6,1.6
				s0.7,1.6,1.6,1.6h1.3v1.3c0,0.9,0.7,1.6,1.6,1.6s1.6-0.7,1.6-1.6v-1.3h1.3c0.9,0,1.6-0.7,1.6-1.6S278,64.4,277.1,64.4z"/>
		</g>
		<g>
			<path class="st4" d="M92.9,169.4h-1.3V168c0-0.9-0.7-1.6-1.6-1.6s-1.6,0.7-1.6,1.6v1.3h-1.3c-0.9,0-1.6,0.7-1.6,1.6
				c0,0.9,0.7,1.6,1.6,1.6h1.3v1.3c0,0.9,0.7,1.6,1.6,1.6s1.6-0.7,1.6-1.6v-1.3h1.3c0.9,0,1.6-0.7,1.6-1.6
				C94.5,170.1,93.8,169.4,92.9,169.4z"/>
		</g>
		<g>
			<path class="st9" d="M90.1,81.1c-0.6,0-1.1-0.2-1.6-0.5l-9.1-6c-1.4-0.9-1.8-2.8-0.9-4.2c0.9-1.4,2.8-1.8,4.2-0.9l9.1,6
				c1.4,0.9,1.8,2.8,0.9,4.2C92,80.6,91,81.1,90.1,81.1z"/>
		</g>
		<g>
			<path class="st8" d="M248,54.9c-0.6,0-1.2-0.2-1.7-0.5c-1.4-1-1.7-2.8-0.7-4.2l8.1-11.5c1-1.4,2.8-1.7,4.2-0.7
				c1.4,1,1.7,2.8,0.7,4.2l-8.1,11.5C249.9,54.5,249,54.9,248,54.9z"/>
		</g>
		<g>
			<path class="st9" d="M302.5,116.7c-1.3,0-2.5-0.9-2.9-2.2c-0.4-1.6,0.5-3.2,2.1-3.7l12.7-3.4c1.6-0.4,3.2,0.5,3.7,2.1
				c0.4,1.6-0.5,3.2-2.1,3.7l-12.7,3.4C303,116.6,302.8,116.7,302.5,116.7z"/>
		</g>
		<g>
			<path class="st8" d="M283.8,227.1c-0.6,0-1.2-0.2-1.8-0.6l-10.3-7.5c-1.3-1-1.6-2.8-0.7-4.2c1-1.3,2.8-1.6,4.2-0.7l10.3,7.5
				c1.3,1,1.6,2.8,0.7,4.2C285.6,226.7,284.7,227.1,283.8,227.1z"/>
		</g>
		<g>
			<path class="st6" d="M72.5,211.9c-0.9,0-1.9-0.4-2.4-1.3c-1-1.3-0.7-3.2,0.7-4.2l10.6-7.6c1.3-1,3.2-0.7,4.2,0.7
				c1,1.3,0.7,3.2-0.7,4.2l-10.6,7.6C73.7,211.7,73.1,211.9,72.5,211.9z"/>
		</g>
		<g>
			<path class="st6" d="M168.1,49.2c-1.4,0-2.6-1-2.9-2.4l-3.6-16.6c-0.3-1.6,0.7-3.2,2.3-3.6c1.6-0.3,3.2,0.7,3.6,2.3l3.6,16.6
				c0.3,1.6-0.7,3.2-2.3,3.6C168.5,49.1,168.3,49.2,168.1,49.2z"/>
		</g>
		<g>
			<path class="st8" d="M40.8,156.2c-1.3,0-2.5-0.8-2.9-2.1c-0.5-1.6,0.4-3.3,2-3.8l12.7-4c1.6-0.5,3.3,0.4,3.8,2s-0.4,3.3-2,3.8
				l-12.7,4C41.4,156.1,41.1,156.2,40.8,156.2z"/>
		</g>
		<g>
			<path class="st6" d="M309.8,176.2c-0.2,0-0.4,0-0.6-0.1l-11.3-2.2c-1.6-0.3-2.7-1.9-2.4-3.5c0.3-1.6,1.9-2.7,3.5-2.4l11.3,2.2
				c1.6,0.3,2.7,1.9,2.4,3.5C312.5,175.2,311.2,176.2,309.8,176.2z"/>
		</g>
	</g>
</g>
<path class="st4" d="M115.5,82.3l6.8-1.4l8,12.8l0.1,0l1.9-14.8l6.3-1.3l-3.8,22.1l-6.7,1.4L115.5,82.3z"/>
<path class="st4" d="M161.5,83.1L161.5,83.1c-0.9,1-1.9,1.7-3.2,2.1c-1.2,0.4-2.5,0.5-3.8,0.3c-1-0.1-1.9-0.3-2.7-0.7
	c-0.9-0.4-1.6-0.9-2.2-1.5c-0.6-0.6-1.1-1.3-1.4-2.2c-0.3-0.8-0.4-1.8-0.3-2.8c0.1-1.2,0.5-2.2,1-2.9c0.5-0.8,1.2-1.4,2-1.8
	c0.8-0.5,1.7-0.8,2.7-1c1-0.2,2-0.3,3.1-0.3c1.1,0,2.1,0,3.1,0.1c1,0.1,2,0.2,2.9,0.3c0.1-1.1-0.2-2.1-0.9-2.8
	c-0.7-0.8-1.7-1.2-2.8-1.3c-1.1-0.1-2,0-2.9,0.3c-0.9,0.3-1.8,0.9-2.5,1.6l-3-3.9c1.3-1,2.8-1.6,4.4-2c1.7-0.4,3.3-0.5,5-0.3
	c1.9,0.2,3.4,0.6,4.5,1.2c1.2,0.6,2,1.4,2.7,2.4c0.6,1,1,2.2,1.1,3.5c0.1,1.4,0.1,2.9-0.1,4.6l-1.2,10.5l-5.9-0.7L161.5,83.1z
	 M160.7,76.5c-0.5-0.1-1.1-0.1-1.8-0.1c-0.7,0-1.4,0-2.1,0.1c-0.7,0.1-1.3,0.4-1.8,0.7c-0.5,0.3-0.8,0.9-0.9,1.6
	c-0.1,0.8,0.2,1.4,0.8,1.8c0.6,0.4,1.3,0.7,2,0.8c0.6,0.1,1.2,0.1,1.8-0.1c0.6-0.1,1.1-0.3,1.6-0.6c0.5-0.3,0.9-0.6,1.2-1.1
	c0.3-0.5,0.5-1,0.6-1.7l0.2-1.4L160.7,76.5z"/>
<path class="st4" d="M193.1,86.9c-0.4-0.4-0.9-0.7-1.5-0.8c-0.6-0.2-1.3-0.2-1.9-0.1c-1.6,0.3-2.7,1-3.4,2.2c-0.7,1.1-0.9,2.5-0.6,4
	c0.3,1.5,1,2.7,2.1,3.5c1.1,0.8,2.4,1,4,0.7c0.7-0.1,1.3-0.4,1.7-0.8c0.4-0.4,0.8-0.9,1.1-1.4l5,3.5c-0.8,1.2-1.8,2.1-3,2.8
	c-1.2,0.7-2.5,1.1-3.7,1.4c-1.6,0.3-3.1,0.4-4.6,0.1c-1.5-0.2-2.8-0.7-4-1.4c-1.2-0.7-2.2-1.7-3.1-2.9c-0.9-1.2-1.4-2.6-1.8-4.2
	c-0.3-1.6-0.3-3.2,0-4.6c0.3-1.4,0.9-2.7,1.7-3.9c0.8-1.1,1.9-2.1,3.2-2.9c1.3-0.8,2.7-1.3,4.3-1.7c1.2-0.2,2.5-0.3,3.9-0.2
	c1.4,0.1,2.7,0.6,3.9,1.4L193.1,86.9z"/>
<path class="st4" d="M218.7,64.3c0.1-1,0.5-1.9,1.3-2.5c0.8-0.7,1.7-0.9,2.7-0.9c1,0.1,1.9,0.5,2.5,1.3c0.7,0.8,0.9,1.7,0.9,2.7
	c-0.1,1-0.5,1.9-1.3,2.5c-0.8,0.7-1.7,0.9-2.7,0.9c-1-0.1-1.9-0.5-2.5-1.3C218.9,66.2,218.6,65.3,218.7,64.3z M218.6,70.9l6.4,0.6
	l-1.9,20.7l-6.4-0.6L218.6,70.9z"/>
<path class="st4" d="M239.9,91.3c0-1.7,0.4-3.1,1-4.5c0.6-1.3,1.5-2.5,2.5-3.4c1.1-0.9,2.3-1.6,3.7-2.1c1.4-0.5,2.9-0.7,4.5-0.7
	c1.6,0,3.1,0.3,4.5,0.9c1.4,0.5,2.6,1.3,3.6,2.3c1,1,1.8,2.1,2.4,3.5c0.6,1.4,0.8,2.9,0.8,4.5c0,1.7-0.4,3.1-1,4.5
	c-0.6,1.3-1.5,2.5-2.5,3.4c-1.1,0.9-2.3,1.6-3.7,2.1c-1.4,0.5-2.9,0.7-4.5,0.7c-1.6,0-3.1-0.3-4.5-0.9c-1.4-0.5-2.6-1.3-3.6-2.3
	c-1-1-1.8-2.1-2.4-3.5C240.1,94.5,239.8,93,239.9,91.3z M246.3,91.5c0,1.6,0.4,2.9,1.3,3.8c0.9,1,2.1,1.5,3.8,1.5
	c1.6,0,2.9-0.4,3.8-1.4c0.9-1,1.4-2.2,1.4-3.8c0-1.6-0.4-2.8-1.3-3.8c-0.9-1-2.1-1.5-3.8-1.5c-1.6,0-2.9,0.4-3.8,1.4
	C246.8,88.6,246.3,89.9,246.3,91.5z"/>
</svg>
